<svg xmlns="http://www.w3.org/2000/svg" xmlns:xlink="http://www.w3.org/1999/xlink" zoomAndPan="magnify" preserveAspectRatio="xMidYMid meet" version="1.0" viewBox="0 15 369.8 103.98"><defs><g/><clipPath id="babf6fa9fb"><path d="M 0 15 L 103.964844 15 L 103.964844 118.964844 L 0 118.964844 Z M 0 15 " clip-rule="nonzero"/></clipPath></defs><g clip-path="url(#babf6fa9fb)"><path fill="#333333" d="M 100.25 66.980469 C 100.25 93.597656 78.597656 115.25 51.980469 115.25 C 25.367188 115.25 3.714844 93.597656 3.714844 66.980469 C 3.714844 40.367188 25.367188 18.714844 51.980469 18.714844 C 78.597656 18.714844 100.25 40.367188 100.25 66.980469 Z M 103.964844 66.980469 C 103.964844 38.320312 80.644531 15 51.980469 15 C 23.320312 15 0 38.320312 0 66.980469 C 0 95.644531 23.320312 118.964844 51.980469 118.964844 C 80.644531 118.964844 103.964844 95.644531 103.964844 66.980469 Z M 35.765625 108.472656 C 31.308594 92.65625 33.363281 75.476562 43.75 60.15625 C 30.421875 61.425781 17.914062 67.808594 8.855469 78.042969 C 12.414062 91.945312 22.507812 103.285156 35.765625 108.472656 Z M 24.234375 32.175781 C 40.082031 36.078125 54.40625 47.207031 62.007812 63.175781 C 67.585938 51.082031 68.300781 37.082031 63.929688 24.066406 C 50.441406 20.308594 35.679688 23.015625 24.234375 32.175781 Z M 50.195312 77.519531 C 57.839844 88.382812 69.617188 96.019531 83.125 98.78125 C 93.648438 88.488281 98.179688 74.210938 96.007812 60.316406 C 84.511719 72.164062 68.582031 78.835938 50.195312 77.519531 Z M 79.707031 101.804688 C 62.046875 97.332031 48.800781 85.265625 41.988281 70.878906 C 36.753906 82.539062 35.667969 96.503906 40.113281 109.917969 C 53.945312 113.742188 68.574219 110.703125 79.707031 101.804688 Z M 68.265625 25.515625 C 73.199219 42.882812 69.78125 59.679688 60.292969 73.699219 C 73.289062 72.40625 85.878906 66.234375 95.082031 55.828125 C 91.511719 41.996094 81.453125 30.703125 68.265625 25.515625 Z M 7.941406 73.574219 C 5.828125 59.855469 10.21875 45.601562 20.78125 35.238281 C 34.0625 37.777344 45.847656 45.507812 53.683594 56.433594 C 37.210938 55.253906 20.570312 60.589844 7.941406 73.574219 " fill-opacity="1" fill-rule="nonzero" style="--darkreader-inline-fill: #262a2b;" data-darkreader-inline-fill=""/></g><g fill="#333333" fill-opacity="1" style="--darkreader-inline-fill: #262a2b;" data-darkreader-inline-fill=""><g transform="translate(111.79846, 89.555766)"><g><path d="M 19.84375 -55.265625 C 21.625 -55.265625 23.171875 -55.09375 24.484375 -54.75 C 25.796875 -54.40625 27.132812 -53.945312 28.5 -53.375 C 29.175781 -53.113281 29.84375 -52.875 30.5 -52.65625 C 31.15625 -52.445312 31.75 -52.34375 32.28125 -52.34375 C 33.53125 -52.34375 34.523438 -53.316406 35.265625 -55.265625 L 36.765625 -55.265625 L 36.765625 -37.3125 L 35.265625 -37.3125 C 35.003906 -40.09375 34.175781 -42.625 32.78125 -44.90625 C 31.394531 -47.1875 29.664062 -48.984375 27.59375 -50.296875 C 25.519531 -51.609375 23.300781 -52.265625 20.9375 -52.265625 C 18.363281 -52.265625 16.160156 -51.488281 14.328125 -49.9375 C 12.492188 -48.394531 11.578125 -46.519531 11.578125 -44.3125 C 11.578125 -41.75 12.832031 -39.519531 15.34375 -37.625 C 17.132812 -36.3125 19.628906 -34.738281 22.828125 -32.90625 C 25.660156 -31.175781 28.019531 -29.679688 29.90625 -28.421875 C 31.800781 -27.160156 33.5625 -25.796875 35.1875 -24.328125 C 36.65625 -22.910156 37.820312 -21.28125 38.6875 -19.4375 C 39.550781 -17.601562 39.984375 -15.71875 39.984375 -13.78125 C 39.984375 -11.101562 39.25 -8.609375 37.78125 -6.296875 C 36.3125 -3.984375 34.300781 -2.15625 31.75 -0.8125 C 29.207031 0.519531 26.414062 1.1875 23.375 1.1875 C 21.4375 1.1875 19.71875 1.015625 18.21875 0.671875 C 16.726562 0.328125 15.171875 -0.128906 13.546875 -0.703125 C 11.753906 -1.335938 10.414062 -1.65625 9.53125 -1.65625 C 8.113281 -1.65625 7.035156 -0.707031 6.296875 1.1875 L 4.875 1.1875 L 4.875 -17 L 6.296875 -17 C 7.191406 -12.332031 8.960938 -8.632812 11.609375 -5.90625 C 14.265625 -3.175781 17.691406 -1.8125 21.890625 -1.8125 C 24.878906 -1.8125 27.34375 -2.625 29.28125 -4.25 C 31.226562 -5.875 32.203125 -7.921875 32.203125 -10.390625 C 32.203125 -11.648438 31.960938 -12.800781 31.484375 -13.84375 C 31.015625 -14.894531 30.226562 -16.023438 29.125 -17.234375 C 28.125 -18.285156 26.707031 -19.425781 24.875 -20.65625 C 23.039062 -21.894531 20.597656 -23.429688 17.546875 -25.265625 C 14.984375 -26.835938 13.019531 -28.082031 11.65625 -29 C 10.289062 -29.925781 9.265625 -30.726562 8.578125 -31.40625 C 5.898438 -34.132812 4.5625 -37.414062 4.5625 -41.25 C 4.5625 -43.875 5.226562 -46.25 6.5625 -48.375 C 7.90625 -50.5 9.726562 -52.175781 12.03125 -53.40625 C 14.34375 -54.644531 16.945312 -55.265625 19.84375 -55.265625 Z M 19.84375 -55.265625 "/></g></g></g><g fill="#333333" fill-opacity="1" style="--darkreader-inline-fill: #262a2b;" data-darkreader-inline-fill=""><g transform="translate(155.242298, 89.555766)"><g><path d="M 14.09375 -29.671875 C 16.820312 -32.609375 19.050781 -34.628906 20.78125 -35.734375 C 22.507812 -36.835938 24.425781 -37.390625 26.53125 -37.390625 C 28.832031 -37.390625 30.691406 -36.769531 32.109375 -35.53125 C 33.535156 -34.300781 34.5625 -32.796875 35.1875 -31.015625 C 35.8125 -29.234375 36.125 -27.472656 36.125 -25.734375 L 36.125 -8.34375 C 36.125 -5.664062 36.546875 -3.867188 37.390625 -2.953125 C 38.234375 -2.035156 39.675781 -1.523438 41.71875 -1.421875 L 41.71875 0 L 23.296875 0 L 23.296875 -1.421875 C 24.972656 -1.421875 26.257812 -1.601562 27.15625 -1.96875 C 28.050781 -2.332031 28.691406 -3 29.078125 -3.96875 C 29.472656 -4.945312 29.671875 -6.40625 29.671875 -8.34375 L 29.671875 -26.0625 C 29.671875 -27.738281 29.117188 -29.269531 28.015625 -30.65625 C 26.921875 -32.050781 25.398438 -32.75 23.453125 -32.75 C 21.828125 -32.75 20.28125 -32.316406 18.8125 -31.453125 C 17.34375 -30.585938 15.769531 -29.257812 14.09375 -27.46875 L 14.09375 -8.34375 C 14.09375 -5.613281 14.535156 -3.789062 15.421875 -2.875 C 16.316406 -1.957031 17.867188 -1.472656 20.078125 -1.421875 L 20.078125 0 L 1.96875 0 L 1.96875 -1.421875 C 3.59375 -1.578125 4.796875 -1.863281 5.578125 -2.28125 C 6.367188 -2.695312 6.910156 -3.351562 7.203125 -4.25 C 7.492188 -5.144531 7.640625 -6.429688 7.640625 -8.109375 L 7.640625 -27.703125 C 7.640625 -28.910156 7.375 -29.960938 6.84375 -30.859375 C 6.320312 -31.753906 5.484375 -32.203125 4.328125 -32.203125 C 3.804688 -32.203125 3.320312 -32.109375 2.875 -31.921875 C 2.425781 -31.734375 2.125 -31.613281 1.96875 -31.5625 L 1.421875 -33.0625 L 12.75 -37.390625 L 14.09375 -37.390625 Z M 14.09375 -29.671875 "/></g></g></g><g fill="#333333" fill-opacity="1" style="--darkreader-inline-fill: #262a2b;" data-darkreader-inline-fill=""><g transform="translate(198.686136, 89.555766)"><g><path d="M 18.8125 -37.390625 C 26.6875 -37.390625 30.625 -34.238281 30.625 -27.9375 L 30.625 -7.078125 C 30.625 -5.660156 30.832031 -4.726562 31.25 -4.28125 C 31.664062 -3.84375 32.21875 -3.625 32.90625 -3.625 C 33.6875 -3.625 34.414062 -3.84375 35.09375 -4.28125 C 35.78125 -4.726562 36.78125 -5.582031 38.09375 -6.84375 L 38.09375 -4.875 C 36.101562 -2.625 34.460938 -1.0625 33.171875 -0.1875 C 31.890625 0.675781 30.566406 1.109375 29.203125 1.109375 C 27.679688 1.109375 26.460938 0.570312 25.546875 -0.5 C 24.628906 -1.582031 24.171875 -3.175781 24.171875 -5.28125 C 21.859375 -3.070312 19.71875 -1.453125 17.75 -0.421875 C 15.78125 0.597656 13.640625 1.109375 11.328125 1.109375 C 9.023438 1.109375 7.085938 0.242188 5.515625 -1.484375 C 3.941406 -3.222656 3.15625 -5.328125 3.15625 -7.796875 C 3.15625 -11.992188 5.382812 -15.242188 9.84375 -17.546875 C 14.09375 -19.804688 18.867188 -21.878906 24.171875 -23.765625 L 24.171875 -25.984375 C 24.171875 -28.078125 24.023438 -29.753906 23.734375 -31.015625 C 23.441406 -32.273438 22.785156 -33.285156 21.765625 -34.046875 C 20.742188 -34.804688 19.179688 -35.1875 17.078125 -35.1875 C 15.035156 -35.1875 13.515625 -34.6875 12.515625 -33.6875 C 11.515625 -32.695312 11.015625 -31.460938 11.015625 -29.984375 L 11.09375 -27.9375 C 11.09375 -27.050781 10.804688 -26.316406 10.234375 -25.734375 C 9.660156 -25.160156 8.925781 -24.875 8.03125 -24.875 C 7.03125 -24.875 6.210938 -25.160156 5.578125 -25.734375 C 4.953125 -26.316406 4.640625 -27.132812 4.640625 -28.1875 C 4.640625 -30.8125 5.875 -33 8.34375 -34.75 C 10.8125 -36.507812 14.300781 -37.390625 18.8125 -37.390625 Z M 9.84375 -9.84375 C 9.84375 -8.050781 10.40625 -6.523438 11.53125 -5.265625 C 12.65625 -4.015625 14.0625 -3.390625 15.75 -3.390625 C 18.425781 -3.390625 21.234375 -4.703125 24.171875 -7.328125 L 24.171875 -21.640625 C 20.492188 -20.117188 17.65625 -18.796875 15.65625 -17.671875 C 13.664062 -16.546875 12.195312 -15.378906 11.25 -14.171875 C 10.3125 -12.960938 9.84375 -11.519531 9.84375 -9.84375 Z M 9.84375 -9.84375 "/></g></g></g><g fill="#333333" fill-opacity="1" style="--darkreader-inline-fill: #262a2b;" data-darkreader-inline-fill=""><g transform="translate(238.037446, 89.555766)"><g><path d="M 14.328125 -29.046875 L 14.484375 -29.046875 C 15.953125 -31.566406 17.757812 -33.585938 19.90625 -35.109375 C 22.0625 -36.628906 24.347656 -37.390625 26.765625 -37.390625 C 29.390625 -37.390625 31.789062 -36.585938 33.96875 -34.984375 C 36.144531 -33.390625 37.875 -31.203125 39.15625 -28.421875 C 40.445312 -25.640625 41.09375 -22.59375 41.09375 -19.28125 C 41.09375 -15.5625 40.273438 -12.140625 38.640625 -9.015625 C 37.015625 -5.890625 34.8125 -3.421875 32.03125 -1.609375 C 29.25 0.203125 26.207031 1.109375 22.90625 1.109375 C 19.550781 1.109375 16.691406 -0.0195312 14.328125 -2.28125 L 14.328125 8.1875 C 14.328125 10.226562 14.535156 11.75 14.953125 12.75 C 15.378906 13.75 16.050781 14.414062 16.96875 14.75 C 17.882812 15.09375 19.207031 15.265625 20.9375 15.265625 L 20.9375 16.6875 L 1.34375 16.6875 L 1.34375 15.265625 C 3.070312 15.265625 4.394531 15.082031 5.3125 14.71875 C 6.226562 14.351562 6.882812 13.671875 7.28125 12.671875 C 7.675781 11.671875 7.875 10.203125 7.875 8.265625 L 7.875 -27.46875 C 7.875 -28.832031 7.582031 -29.945312 7 -30.8125 C 6.425781 -31.6875 5.535156 -32.125 4.328125 -32.125 C 3.703125 -32.125 2.914062 -31.960938 1.96875 -31.640625 L 1.34375 -33.0625 L 12.984375 -37.390625 L 14.328125 -37.390625 Z M 14.328125 -26.609375 L 14.328125 -10 C 14.328125 -7.632812 15.140625 -5.597656 16.765625 -3.890625 C 18.390625 -2.191406 20.539062 -1.34375 23.21875 -1.34375 C 26.632812 -1.34375 29.351562 -2.71875 31.375 -5.46875 C 33.394531 -8.226562 34.40625 -11.914062 34.40625 -16.53125 C 34.40625 -20.988281 33.394531 -24.644531 31.375 -27.5 C 29.351562 -30.363281 26.710938 -31.796875 23.453125 -31.796875 C 20.203125 -31.796875 17.160156 -30.066406 14.328125 -26.609375 Z M 14.328125 -26.609375 "/></g></g></g><g fill="#333333" fill-opacity="1" style="--darkreader-inline-fill: #262a2b;" data-darkreader-inline-fill=""><g transform="translate(281.481284, 89.555766)"><g><path d="M 9.046875 -10.46875 L 29.203125 -56.4375 L 30.625 -56.4375 L 51.875 -7.484375 C 52.664062 -5.691406 53.414062 -4.363281 54.125 -3.5 C 54.832031 -2.632812 55.578125 -2.070312 56.359375 -1.8125 C 57.148438 -1.550781 58.226562 -1.421875 59.59375 -1.421875 L 59.59375 0 L 37.390625 0 L 37.390625 -1.421875 C 39.273438 -1.421875 40.691406 -1.757812 41.640625 -2.4375 C 42.585938 -3.125 43.0625 -4.046875 43.0625 -5.203125 C 43.0625 -6.191406 42.71875 -7.421875 42.03125 -8.890625 L 37.9375 -18.1875 L 16.140625 -18.1875 L 11.65625 -7.875 C 11.125 -6.820312 10.859375 -5.875 10.859375 -5.03125 C 10.859375 -2.625 12.800781 -1.421875 16.6875 -1.421875 L 16.6875 0 L 1.109375 0 L 1.109375 -1.421875 C 2.410156 -1.578125 3.46875 -1.957031 4.28125 -2.5625 C 5.101562 -3.164062 5.84375 -4.039062 6.5 -5.1875 C 7.15625 -6.34375 8.003906 -8.101562 9.046875 -10.46875 Z M 36.6875 -21.171875 L 27.078125 -43.140625 L 17.46875 -21.171875 Z M 36.6875 -21.171875 "/></g></g></g><g fill="#333333" fill-opacity="1" style="--darkreader-inline-fill: #262a2b;" data-darkreader-inline-fill=""><g transform="translate(342.160986, 89.555766)"><g><path d="M 27.625 -52.65625 C 25.425781 -52.65625 23.75 -52.457031 22.59375 -52.0625 C 21.4375 -51.675781 20.617188 -50.96875 20.140625 -49.9375 C 19.671875 -48.914062 19.4375 -47.4375 19.4375 -45.5 L 19.4375 -7.875 C 19.4375 -6.09375 19.722656 -4.738281 20.296875 -3.8125 C 20.878906 -2.894531 21.75 -2.28125 22.90625 -1.96875 C 24.0625 -1.65625 25.632812 -1.472656 27.625 -1.421875 L 27.625 0 L 2.75 0 L 2.75 -1.421875 C 4.851562 -1.472656 6.46875 -1.65625 7.59375 -1.96875 C 8.71875 -2.28125 9.554688 -2.894531 10.109375 -3.8125 C 10.660156 -4.738281 10.9375 -6.117188 10.9375 -7.953125 L 10.9375 -45.5 C 10.9375 -47.4375 10.6875 -48.90625 10.1875 -49.90625 C 9.695312 -50.90625 8.882812 -51.597656 7.75 -51.984375 C 6.625 -52.378906 4.957031 -52.601562 2.75 -52.65625 L 2.75 -54.078125 L 27.625 -54.078125 Z M 27.625 -52.65625 "/></g></g></g></svg>