<svg xmlns="http://www.w3.org/2000/svg" xmlns:xlink="http://www.w3.org/1999/xlink" width="500" zoomAndPan="magnify" viewBox="0 0 375 374.999991" height="500" preserveAspectRatio="xMidYMid meet" version="1.0"><path fill="#d9d9d9" d="M 361.605469 187.5 C 361.605469 283.503906 283.503906 361.605469 187.5 361.605469 C 91.496094 361.605469 13.394531 283.503906 13.394531 187.5 C 13.394531 91.496094 91.496094 13.394531 187.5 13.394531 C 283.503906 13.394531 361.605469 91.496094 361.605469 187.5 Z M 375 187.5 C 375 84.113281 290.886719 0 187.5 0 C 84.113281 0 0 84.113281 0 187.5 C 0 290.886719 84.113281 375 187.5 375 C 290.886719 375 375 290.886719 375 187.5 Z M 129.011719 337.160156 C 112.925781 280.105469 120.347656 218.136719 157.808594 162.882812 C 109.726562 167.464844 64.613281 190.484375 31.945312 227.402344 C 44.773438 277.542969 81.1875 318.453125 129.011719 337.160156 Z M 87.410156 61.949219 C 144.578125 76.023438 196.238281 116.175781 223.664062 173.765625 C 243.78125 130.144531 246.359375 79.65625 230.59375 32.699219 C 181.9375 19.148438 128.703125 28.910156 87.410156 61.949219 Z M 181.058594 225.507812 C 208.632812 264.6875 251.109375 292.230469 299.839844 302.199219 C 337.792969 265.082031 354.140625 213.582031 346.300781 163.457031 C 304.839844 206.195312 247.375 230.257812 181.058594 225.507812 Z M 287.507812 313.109375 C 223.808594 296.976562 176.027344 253.449219 151.460938 201.558594 C 132.578125 243.609375 128.652344 293.984375 144.6875 342.367188 C 194.585938 356.164062 247.347656 345.199219 287.507812 313.109375 Z M 246.234375 37.929688 C 264.035156 100.578125 251.707031 161.164062 217.480469 211.726562 C 264.347656 207.0625 309.765625 184.808594 342.960938 147.261719 C 330.078125 97.375 293.804688 56.644531 246.234375 37.929688 Z M 28.652344 211.273438 C 21.019531 161.796875 36.859375 110.382812 74.957031 73 C 122.863281 82.152344 165.378906 110.039062 193.640625 149.457031 C 134.214844 145.203125 74.199219 164.449219 28.652344 211.273438 " fill-opacity="1" fill-rule="nonzero"/></svg>